.
 
http://www.scenetime.com    -  Hottest private tracker on the net. !!!

New release on http://www.scenetime.com

        Seed back for speed


...................................NFO:.................................................[pre][IMG]http://pokit.org/get/b25125669af05926d51c27368380bdde.jpg[/IMG]

*******************************************************************************
                   The.Descendants.2011.DVDSCR.XviD-PRESTiGE
*******************************************************************************


[color=red]General Information:[/color]

Complete name                    : The.Descendants.2011.DVDSCR.XviD-PRESTiGE
Format                           : AVI
Format/Info                      : Audio Video Interleave
Format profile                   : OpenDML
Format settings                  : rec
File size                        : 1.37 GiB
Duration                         : 2h 0mn
Overall bit rate                 : 1 628 Kbps
Subs				 : N/A
Source				 : ZOMBiES Many THANKS!!!
Encoder				 : [b][color=maroon]akosipalos[/color][/b]

[color=lime]iMDB:[/color] http://www.imdb.com/title/tt1033575/

[color=red]Video[/color]

ID                               : 0
Format                           : MPEG-4 Visual
Format profile                   : Advanced Simple@L5
Format settings, BVOP            : 1
Format settings, QPel            : No
Format settings, GMC             : No warppoints
Format settings, Matrix          : Default (H.263)
Muxing mode                      : Packed bitstream
Codec ID                         : XVID
Codec ID/Hint                    : XviD
Duration                         : 2h 0mn
Bit rate                         : 1 496 Kbps
Width                            : 720 pixels
Height                           : 320 pixels
Display aspect ratio             : 2.25:1
Frame rate                       : 23.976 fps
Original frame rate              : 25.000 fps
Color space                      : YUV
Chroma subsampling               : 4:2:0
Bit depth                        : 8 bits
Scan type                        : Progressive
Compression mode                 : Lossy
Bits/(Pixel*Frame)               : 0.271
Stream size                      : 1.26 GiB (92%)
Writing library                  : XviD 62

[color=red]Audio[/color]

ID                               : 1
Format                           : MPEG Audio
Format version                   : Version 1
Format profile                   : Layer 3
Mode                             : Joint stereo
Mode extension                   : MS Stereo
Codec ID                         : 55
Codec ID/Hint                    : MP3
Duration                         : 1h 55mn
Bit rate mode                    : Constant
Bit rate                         : 128 Kbps
Channel(s)                       : 2 channels
Sampling rate                    : 48.0 KHz
Compression mode                 : Lossy
Stream size                      : 106 MiB (8%)
Alignment                        : Aligned on interleaves
Interleave, duration             : 25 ms (0.60 video frame)
Interleave, preload duration     : 264 ms
Writing library                  : LAME3.98r


[color=red]Plot:[/color]

A land baron tries to re-connect with his two daughters after his wife suffers a boating accident.  


[color=red]Screens:[/color]

[IMG]http://i.imgur.com/Kzpe7.png[/IMG]

[IMG]http://i.imgur.com/MXUq3.png[/IMG]

[IMG]http://i.imgur.com/MCiym.png[/IMG]

[IMG]http://i.imgur.com/4bn6q.png[/IMG]  


[b][color=red]Release Notes:[/color][/b]

WE DONT RELEASE EVERYTHiNG TO OTHERS SiTES YOU WANT MORE OF OUR STUFF COME FiND US AT .......

WE ARE LOOKING FOR SUPPLiERS BLURAY, CAM, R5, PRE RETAiL DVD GOT SOMETHiNG WE MiGHT LiKE WHEN YOU FiND US TELL US.......


[center][b][color=red]GREETZ:[/color][/b]

Twisted | Bigguy | CTFX | Whitestag13 | THoRN | SANTi | PA4U2C | Jungledave | mtyy
| marsby | cld | Stortrapp | rizal | mannilim | Rock | Ulap | centserick2 |
musikera | Tukmol | rock3r | canislupus | sickie | fun2knytz | lilyrose
 EXQUiSiTE | TRiNiTY | RiZAL Team RG | LEGiTiMATE | HiVE-CM8 | BHRG | DTRG 
  CrEwSaDe | Rx | LKRG | THC | aTLas

[img]http://i824.photobucket.com/albums/zz161/akosipalos/PRESTiGE-3.png[/img]

[b][color=red]PRESTiGE[/color] is the level of respect at which one is regarded by others....RIzE Above Or Sink Below...[/b]
[/center][/pre]